<svg width="188" height="63" viewBox="0 0 188 63" fill="none" xmlns="http://www.w3.org/2000/svg">
<path d="M18.6881 38.88V37.4C18.6881 35.9333 18.9681 34.6533 19.5281 33.56C20.0881 32.44 21.0881 31.36 22.5281 30.32C23.1148 29.8933 23.7148 29.4667 24.3281 29.04C24.9415 28.6133 25.4615 28.0933 25.8881 27.48C26.3415 26.8667 26.5681 26.0933 26.5681 25.16C26.5681 24.0133 26.1548 23.0667 25.3281 22.32C24.5281 21.5467 23.2215 21.16 21.4081 21.16C20.1281 21.16 19.0081 21.36 18.0481 21.76C17.0881 22.16 16.2748 22.6667 15.6081 23.28L14.9281 22.88V19.24C16.1815 18.6 17.4081 18.1467 18.6081 17.88C19.8348 17.6133 20.9948 17.48 22.0881 17.48C24.7815 17.48 26.8748 18.1733 28.3681 19.56C29.8615 20.92 30.6081 22.7067 30.6081 24.92C30.6081 26.1733 30.3815 27.2533 29.9281 28.16C29.5015 29.0667 28.9415 29.8533 28.2481 30.52C27.5548 31.1867 26.7948 31.8133 25.9681 32.4C25.3015 32.88 24.7015 33.36 24.1681 33.84C23.6615 34.2933 23.2481 34.8 22.9281 35.36C22.6348 35.92 22.4881 36.6133 22.4881 37.44V38.88H18.6881ZM20.5681 46.48C19.7948 46.48 19.1548 46.2533 18.6481 45.8C18.1415 45.3467 17.8881 44.68 17.8881 43.8C17.8881 42.9467 18.1415 42.2933 18.6481 41.84C19.1548 41.36 19.7948 41.12 20.5681 41.12C21.3148 41.12 21.9415 41.36 22.4481 41.84C22.9815 42.2933 23.2481 42.9467 23.2481 43.8C23.2481 44.68 22.9815 45.3467 22.4481 45.8C21.9415 46.2533 21.3148 46.48 20.5681 46.48Z" fill="black"/>
<path d="M42 27.6757V48C42 50.2091 40.2091 52 38 52H6C3.79086 52 2 50.2091 2 48V16C2 13.7909 3.79086 12 6 12H38C40.2091 12 42 13.7909 42 16V17.4054" stroke="black" stroke-width="4" stroke-linecap="round"/>
<path d="M72.5416 49.6L68.9816 44.52L73.2616 43.4L77.7016 49.52V49.6H72.5416ZM65.3016 45.32C63.1149 45.32 61.3149 45.2 59.9016 44.96C58.4882 44.6933 57.3682 44.2533 56.5416 43.64C55.7149 43.0267 55.1149 42.1867 54.7416 41.12C54.3682 40.0533 54.1282 38.72 54.0216 37.12C53.9149 35.4933 53.8616 33.5333 53.8616 31.24C53.8616 28.9467 53.9149 27 54.0216 25.4C54.1282 23.7733 54.3682 22.4267 54.7416 21.36C55.1149 20.2933 55.7149 19.4533 56.5416 18.84C57.3682 18.2267 58.4882 17.8 59.9016 17.56C61.3149 17.2933 63.1149 17.16 65.3016 17.16C67.4882 17.16 69.2882 17.2933 70.7016 17.56C72.1416 17.8 73.2749 18.2267 74.1016 18.84C74.9282 19.4533 75.5282 20.2933 75.9016 21.36C76.3016 22.4267 76.5549 23.7733 76.6616 25.4C76.7682 27 76.8216 28.9467 76.8216 31.24C76.8216 33.5333 76.7682 35.4933 76.6616 37.12C76.5549 38.72 76.3016 40.0533 75.9016 41.12C75.5282 42.1867 74.9282 43.0267 74.1016 43.64C73.2749 44.2533 72.1416 44.6933 70.7016 44.96C69.2882 45.2 67.4882 45.32 65.3016 45.32ZM65.3016 41.48C66.6349 41.48 67.7282 41.44 68.5816 41.36C69.4616 41.28 70.1416 41.08 70.6216 40.76C71.1282 40.44 71.5016 39.92 71.7416 39.2C71.9816 38.4533 72.1282 37.4533 72.1816 36.2C72.2616 34.92 72.3016 33.2667 72.3016 31.24C72.3016 29.2133 72.2616 27.5733 72.1816 26.32C72.1282 25.04 71.9816 24.04 71.7416 23.32C71.5016 22.5733 71.1282 22.04 70.6216 21.72C70.1416 21.4 69.4616 21.2 68.5816 21.12C67.7282 21.04 66.6349 21 65.3016 21C63.9949 21 62.9149 21.04 62.0616 21.12C61.2082 21.2 60.5282 21.4 60.0216 21.72C59.5149 22.04 59.1416 22.5733 58.9016 23.32C58.6882 24.04 58.5416 25.04 58.4616 26.32C58.4082 27.5733 58.3816 29.2133 58.3816 31.24C58.3816 33.2667 58.4082 34.92 58.4616 36.2C58.5416 37.4533 58.6882 38.4533 58.9016 39.2C59.1416 39.92 59.5149 40.44 60.0216 40.76C60.5282 41.08 61.2082 41.28 62.0616 41.36C62.9149 41.44 63.9949 41.48 65.3016 41.48ZM89.4181 45.32C88.0048 45.32 86.8448 45.16 85.9381 44.84C85.0581 44.4933 84.3781 43.9867 83.8981 43.32C83.4448 42.6533 83.1381 41.8267 82.9781 40.84C82.8181 39.8533 82.7381 38.6933 82.7381 37.36V24.6H86.9781V35.68C86.9781 37.0133 87.0181 38.08 87.0981 38.88C87.2048 39.6533 87.4048 40.24 87.6981 40.64C87.9915 41.0133 88.4181 41.2533 88.9781 41.36C89.5648 41.4667 90.3381 41.52 91.2981 41.52C92.3648 41.52 93.2181 41.3867 93.8581 41.12C94.4981 40.8533 94.9648 40.4533 95.2581 39.92C95.5781 39.3867 95.7781 38.72 95.8581 37.92C95.9381 37.12 95.9781 36.1867 95.9781 35.12V24.6H100.258V45H96.3381L96.1781 42.28H95.8981C95.6048 42.92 95.1781 43.4667 94.6181 43.92C94.0848 44.3733 93.3915 44.72 92.5381 44.96C91.6848 45.2 90.6448 45.32 89.4181 45.32ZM106.486 19.48V15.28H110.926V19.48H106.486ZM106.566 45V24.6H110.806V45H106.566ZM115.993 45V41.72L126.953 28.16H116.473V24.6H132.433V27.88L121.473 41.44H132.513V45H115.993ZM136.54 45V41.72L147.5 28.16H137.02V24.6H152.98V27.88L142.02 41.44H153.06V45H136.54ZM158.207 45V15.28H162.447V45H158.207ZM177.434 45.32C175.7 45.32 174.26 45.2133 173.114 45C171.967 44.76 171.047 44.3867 170.354 43.88C169.66 43.3467 169.14 42.68 168.794 41.88C168.447 41.0533 168.22 40.0667 168.114 38.92C168.007 37.7467 167.954 36.3867 167.954 34.84C167.954 33 168.047 31.4133 168.234 30.08C168.42 28.7467 168.807 27.6533 169.394 26.8C169.98 25.92 170.887 25.28 172.114 24.88C173.367 24.48 175.034 24.28 177.114 24.28C178.74 24.28 180.074 24.4133 181.114 24.68C182.154 24.92 182.967 25.3067 183.554 25.84C184.167 26.3733 184.607 27.0667 184.874 27.92C185.167 28.7467 185.354 29.7467 185.434 30.92C185.514 32.0667 185.554 33.3733 185.554 34.84V36.2H172.234C172.234 37.4 172.287 38.3733 172.394 39.12C172.5 39.84 172.74 40.4 173.114 40.8C173.514 41.1733 174.127 41.44 174.954 41.6C175.807 41.7333 176.954 41.8 178.394 41.8C179.007 41.8 179.674 41.7867 180.394 41.76C181.14 41.7333 181.9 41.68 182.674 41.6C183.447 41.52 184.14 41.4533 184.754 41.4V44.72C184.167 44.8267 183.46 44.92 182.634 45C181.807 45.1067 180.94 45.1867 180.034 45.24C179.127 45.2933 178.26 45.32 177.434 45.32ZM181.474 33.92V33.16C181.474 31.96 181.394 31.0133 181.234 30.32C181.1 29.6 180.86 29.0667 180.514 28.72C180.194 28.3467 179.74 28.1067 179.154 28C178.594 27.8667 177.887 27.8 177.034 27.8C175.967 27.8 175.114 27.88 174.474 28.04C173.86 28.1733 173.394 28.44 173.074 28.84C172.754 29.24 172.527 29.8 172.394 30.52C172.287 31.2133 172.234 32.1333 172.234 33.28H182.194L181.474 33.92Z" fill="#8E94F2"/>
</svg>
